<svg id="Layer_1" data-name="Layer 1" xmlns="http://www.w3.org/2000/svg" xmlns:xlink="http://www.w3.org/1999/xlink" width="256" height="319.5" viewBox="0 0 256 319.5"><defs><style>.cls-1{fill:url(#linear-gradient);}.cls-2{fill:#f2e4c9;}.cls-3{fill:#3e3e3e;}.cls-4{fill:#ccc;}</style><linearGradient id="linear-gradient" x1="128" y1="319.5" x2="128" y2="5.5" gradientUnits="userSpaceOnUse"><stop offset="0" stop-color="#313131"/><stop offset="1" stop-color="#525252"/></linearGradient></defs><rect class="cls-1" y="5.5" width="256" height="314" rx="4"/><rect class="cls-2" x="5" y="10.5" width="246" height="304" rx="2"/><g id="spiral"><rect class="cls-3" x="21" y="18" width="8" height="8"/><rect class="cls-4" x="22.25" width="2" height="24" rx="1"/><rect class="cls-4" x="25.75" width="2" height="24" rx="1"/><rect class="cls-3" x="209.83" y="18" width="8" height="8"/><rect class="cls-4" x="211.08" width="2" height="24" rx="1"/><rect class="cls-4" x="214.58" width="2" height="24" rx="1"/><rect class="cls-3" x="192.67" y="18" width="8" height="8"/><rect class="cls-4" x="193.92" width="2" height="24" rx="1"/><rect class="cls-4" x="197.42" width="2" height="24" rx="1"/><rect class="cls-3" x="175.5" y="18" width="8" height="8"/><rect class="cls-4" x="176.75" width="2" height="24" rx="1"/><rect class="cls-4" x="180.25" width="2" height="24" rx="1"/><rect class="cls-3" x="158.33" y="18" width="8" height="8"/><rect class="cls-4" x="159.58" width="2" height="24" rx="1"/><rect class="cls-4" x="163.08" width="2" height="24" rx="1"/><rect class="cls-3" x="141.17" y="18" width="8" height="8"/><rect class="cls-4" x="142.42" width="2" height="24" rx="1"/><rect class="cls-4" x="145.92" width="2" height="24" rx="1"/><rect class="cls-3" x="124" y="18" width="8" height="8"/><rect class="cls-4" x="125.25" width="2" height="24" rx="1"/><rect class="cls-4" x="128.75" width="2" height="24" rx="1"/><rect class="cls-3" x="106.83" y="18" width="8" height="8"/><rect class="cls-4" x="108.08" width="2" height="24" rx="1"/><rect class="cls-4" x="111.58" width="2" height="24" rx="1"/><rect class="cls-3" x="89.67" y="18" width="8" height="8"/><rect class="cls-4" x="90.92" width="2" height="24" rx="1"/><rect class="cls-4" x="94.42" width="2" height="24" rx="1"/><rect class="cls-3" x="72.5" y="18" width="8" height="8"/><rect class="cls-4" x="73.75" width="2" height="24" rx="1"/><rect class="cls-4" x="77.25" width="2" height="24" rx="1"/><rect class="cls-3" x="55.33" y="18" width="8" height="8"/><rect class="cls-4" x="56.58" width="2" height="24" rx="1"/><rect class="cls-4" x="60.08" width="2" height="24" rx="1"/><rect class="cls-3" x="38.17" y="18" width="8" height="8"/><rect class="cls-4" x="39.42" width="2" height="24" rx="1"/><rect class="cls-4" x="42.92" width="2" height="24" rx="1"/><rect class="cls-3" x="227" y="18" width="8" height="8"/><rect class="cls-4" x="228.25" width="2" height="24" rx="1"/><rect class="cls-4" x="231.75" width="2" height="24" rx="1"/></g></svg>