<?xml version="1.0" encoding="utf-8"?>
<!-- Generator: Adobe Illustrator 25.0.1, SVG Export Plug-In . SVG Version: 6.00 Build 0)  -->
<svg version="1.1" id="Layer_2" xmlns="http://www.w3.org/2000/svg" xmlns:xlink="http://www.w3.org/1999/xlink" x="0px" y="0px"
	 viewBox="0 0 32 32" style="enable-background:new 0 0 32 32;" xml:space="preserve">
<style type="text/css">
	.st0{fill:#FFFFFF;}
</style>
<path id="path935" class="st0" d="M10.1,16.1C4.2,18.4,0,24.2,0,30.9C0,31.5,0.5,32,1.1,32c0,0,0,0,0,0h29.9c0.6,0,1.1-0.5,1.1-1.1
	c0-6.7-4.2-12.5-10.1-14.9c-1.6,1.3-3.7,2.1-5.9,2.1C13.8,18.1,11.7,17.4,10.1,16.1z"/>
<path id="path940" class="st0" d="M16,0c-4.7,0-8.5,3.8-8.5,8.5c0,4.7,3.8,8.5,8.5,8.5s8.5-3.8,8.5-8.5C24.5,3.8,20.7,0,16,0z"/>
</svg>
